<?xml version="1.0" encoding="utf-8"?>
<!-- Generator: Adobe Illustrator 24.1.2, SVG Export Plug-In . SVG Version: 6.00 Build 0)  -->
<svg version="1.1" id="Слой_1" xmlns="http://www.w3.org/2000/svg" xmlns:xlink="http://www.w3.org/1999/xlink" x="0px" y="0px"
	 viewBox="0 0 403 256.8" style="enable-background:new 0 0 403 256.8;" xml:space="preserve">
<style type="text/css">
	.st0{fill:#6F0BBB;}
	.st1{fill:#FFFFFF;}
</style>
<g id="XMLID_190_">
	<path id="XMLID_197_" class="st0" d="M0,52.3C0,23.4,23.4,0,52.3,0h298.5C379.6,0,403,23.4,403,52.3v115.5
		c0,26.4-19.7,48.6-45.9,51.9L58.7,256.4C27.5,260.3,0,236,0,204.5V52.3z"/>
	<path id="XMLID_191_" class="st1" d="M285.7,146.5c6.3,0,11.5-2.1,15.4-6.3c4.1-4.3,6.1-10,6.1-17.2c0-7.1-2-12.8-6.1-17
		c-4-4.3-9.1-6.5-15.4-6.5c-6.3,0-11.5,2.2-15.6,6.5c-4,4.2-6,9.9-6,17c0,7.1,2,12.9,6,17.2C274.2,144.4,279.4,146.5,285.7,146.5z
		 M289.4,80c7.9,0,15,1.8,21.4,5.5c6.5,3.6,11.6,8.7,15.3,15.3c3.7,6.5,5.5,14.1,5.5,22.9s-1.8,16.4-5.5,23
		c-3.7,6.5-8.8,11.6-15.3,15.3c-6.4,3.6-13.6,5.4-21.4,5.4c-11.7,0-20.5-3.7-26.6-11v9.8h-23.5V49.1h24.6v41.1
		C270.1,83.4,278.6,80,289.4,80z M229.6,161.4c-2.4,1.8-5.4,3.2-9,4.1c-3.5,0.8-7.1,1.3-11,1.3c-10.1,0-17.9-2.6-23.5-7.7
		c-5.5-5.1-8.2-12.7-8.2-22.7v-34.8h-13.1V82.6h13.1V61.9h24.6v20.6h21.1v18.9h-21.1V136c0,3.6,0.9,6.4,2.7,8.4
		c1.9,1.9,4.5,2.8,7.9,2.8c3.9,0,7.2-1.1,9.9-3.2L229.6,161.4z M111.2,150.2c4.2,0,7.9-0.9,11.2-2.8c3.3-2,5.6-4.9,6.9-8.7V130
		h-16.9c-10.1,0-15.1,3.3-15.1,9.9c0,3.2,1.2,5.7,3.6,7.6C103.5,149.3,106.9,150.2,111.2,150.2z M113.1,79.4
		c13.1,0,23.2,3.2,30.3,9.5c7,6.2,10.6,15.6,10.6,28.2v48.4h-23v-10.6c-4.6,7.9-13.2,11.8-25.8,11.8c-6.5,0-12.2-1.1-17-3.3
		c-4.7-2.2-8.4-5.3-10.9-9.1c-2.5-3.9-3.8-8.3-3.8-13.2c0-7.9,2.9-14.1,8.8-18.6c6-4.5,15.2-6.8,27.6-6.8h19.5
		c0-5.4-1.6-9.5-4.9-12.3c-3.3-2.9-8.1-4.4-14.7-4.4c-4.5,0-9,0.7-13.4,2.2c-4.3,1.4-8,3.3-11,5.7l-8.8-17.2
		c4.6-3.3,10.1-5.8,16.5-7.6C99.6,80.3,106.2,79.4,113.1,79.4z"/>
</g>
</svg>
